<?xml version="1.0"?>
<svg version="1.1" xmlns="http://www.w3.org/2000/svg" width="140px" height="40px" style="border: dashed 2px #aaa"><path fill="#" d="M50.9228515625,32.626953125q-0.0146484375-0.439453125-0.0146484375-0.87890625q0-1.376953125,0.146484375-2.7685546875q0.17578125-1.845703125,0.234375-3.6328125q0.05859375-2.0947265625,0.17578125-4.3505859375q0.0732421875-1.23046875,0.0732421875-2.431640625q0-0.9814453125-0.0439453125-1.9482421875q0.146484375-0.3369140625,0.38818359375-0.4541015625t0.60791015625-0.1171875q0.17578125,0,0.37353515625,0.029296875t0.34423828125,0.146484375q0.205078125,0.029296875,0.50537109375,0.05859375t0.46142578125,0.17578125q0.05859375,0.087890625,0.30029296875,0.6005859375t0.5712890625,1.2451171875t0.6884765625,1.58935546875t0.6884765625,1.6259765625t0.5712890625,1.35498046875t0.30029296875,0.732421875q1.376953125-2.490234375,2.6953125-5.11962890625t2.8857421875-4.95849609375q0.146484375-0.205078125,0.50537109375-0.30029296875t0.59326171875-0.09521484375q0.6298828125,0,0.91552734375,0.30029296875t0.37353515625,0.76904296875q0.05859375,0.29296875,0.0732421875,0.6298828125q0.0146484375,0.17578125-0.0146484375,0.3662109375q-0.05859375,0.5419921875-0.05859375,1.025390625q0,3.4130859375-0.234375,6.77490234375t-0.4248046875,6.78955078125q-0.029296875,0.703125-0.029296875,1.46484375t0.029296875,1.58203125q0.0146484375,0.29296875,0.0146484375,0.5712890625q0,1.2890625-0.2197265625,2.40234375q-0.205078125,0.3369140625-0.673828125,0.4248046875t-0.791015625,0.087890625q-0.6884765625,0-1.318359375-0.322265625l-0.1611328125-0.1904296875l-0.05859375-0.234375t-0.029296875-0.234375q0-2.1240234375,0.15380859375-4.27734375t0.34423828125-4.29931640625t0.40283203125-4.28466796875t0.35888671875-4.27734375q-0.8642578125,1.435546875-1.67724609375,2.92236328125t-1.53076171875,3.02490234375q-0.263671875,0.6005859375-0.50537109375,1.2890625t-0.57861328125,1.23046875q-0.17578125,0.263671875-0.59326171875,0.322265625t-0.72509765625,0.05859375q-0.29296875,0-0.60791015625-0.1025390625t-0.43212890625-0.439453125q-0.5419921875-1.6552734375-1.1572265625-3.2373046875t-1.2451171875-3.2080078125q0,1.083984375,0.0439453125,2.80517578125t0.0439453125,3.56689453125t-0.05859375,3.5302734375t-0.2783203125,2.666015625q-0.05859375,0.3662109375-0.47607421875,0.4541015625t-0.72509765625,0.087890625q-0.234375,0-0.44677734375-0.029296875t-0.41748046875-0.1171875z M68.320361328125,14.5361328125q0-0.17578125,0.13916015625-0.2783203125t0.32958984375-0.15380859375t0.38818359375-0.06591796875t0.34423828125-0.0439453125q0.6591796875-0.087890625,1.7138671875-0.2197265625t2.16064453125-0.25634765625t2.14599609375-0.21240234375t1.669921875-0.087890625q0.29296875,0,0.732421875,0.1025390625t0.46875,0.498046875l-0.1611328125,0.2783203125q-0.99609375,2.255859375-2.04345703125,4.63623046875t-1.9775390625,4.84130859375t-1.64794921875,4.9658203125t-0.9814453125,5.0244140625q0.234375,0.029296875,0.8642578125,0.05859375t1.42822265625,0.0732421875t1.64794921875,0.1318359375t1.56005859375,0.19775390625t1.1572265625,0.25634765625t0.44677734375,0.3515625q0,0.234375-0.1611328125,0.37353515625t-0.40283203125,0.21240234375t-0.498046875,0.10986328125t-0.43212890625,0.03662109375q-0.29296875,0-1.07666015625-0.0146484375t-1.7578125-0.06591796875t-2.02880859375-0.13916015625t-1.92626953125-0.2197265625t-1.435546875-0.31494140625t-0.56396484375-0.41748046875q0-0.8056640625,0.35888671875-2.3876953125t0.94482421875-3.544921875t1.3037109375-4.09423828125t1.4501953125-4.03564453125t1.3916015625-3.39111328125t1.11328125-2.17529296875q-1.46484375,0.087890625-2.90771484375,0.25634765625t-2.90771484375,0.16845703125q-0.205078125,0-0.52734375-0.05859375t-0.322265625-0.3955078125z"/><path fill="#" d=""/></svg>
